<svg xmlns="http://www.w3.org/2000/svg" viewBox="0 0 512 512">
  <defs><linearGradient id="g" x1="0" y1="0" x2="1" y2="1">
    <stop offset="0" stop-color="#0a84ff"/><stop offset="1" stop-color="#00b4d8"/></linearGradient></defs><path d="M512.00 256.00L511.69 328.81L510.76 357.16L509.20 378.46L507.01 396.04L504.18 411.17L500.71 424.49L496.58 436.35L491.77 447.01L486.27 456.61L480.04 465.26L473.05 473.05L465.26 480.04L456.61 486.27L447.01 491.77L436.35 496.58L424.49 500.71L411.17 504.18L396.04 507.01L378.46 509.20L357.16 510.76L328.81 511.69L256.00 512.00L183.19 511.69L154.84 510.76L133.54 509.20L115.96 507.01L100.83 504.18L87.51 500.71L75.65 496.58L64.99 491.77L55.39 486.27L46.74 480.04L38.95 473.05L31.96 465.26L25.73 456.61L20.23 447.01L15.42 436.35L11.29 424.49L7.82 411.17L4.99 396.04L2.80 378.46L1.24 357.16L0.31 328.81L0.00 256.00L0.31 183.19L1.24 154.84L2.80 133.54L4.99 115.96L7.82 100.83L11.29 87.51L15.42 75.65L20.23 64.99L25.73 55.39L31.96 46.74L38.95 38.95L46.74 31.96L55.39 25.73L64.99 20.23L75.65 15.42L87.51 11.29L100.83 7.82L115.96 4.99L133.54 2.80L154.84 1.24L183.19 0.31L256.00 0.00L328.81 0.31L357.16 1.24L378.46 2.80L396.04 4.99L411.17 7.82L424.49 11.29L436.35 15.42L447.01 20.23L456.61 25.73L465.26 31.96L473.05 38.95L480.04 46.74L486.27 55.39L491.77 64.99L496.58 75.65L500.71 87.51L504.18 100.83L507.01 115.96L509.20 133.54L510.76 154.84L511.69 183.19L512.00 256.00Z" fill="url(#g)"/>
  <g>
    <path d="M256 92 L300 256 L256 420 L212 256 Z" fill="#ffffff"/>
    <path d="M92 256 L256 212 L420 256 L256 300 Z" fill="#ffffff" fill-opacity="0.5"/>
    <circle cx="256" cy="256" r="21" fill="#ffffff"/>
  </g></svg>